<svg xmlns="http://www.w3.org/2000/svg" width="512" height="512" viewBox="0 0 512 512">
<defs><clipPath id="roundclip"><rect width="512" height="512" rx="110.08"/></clipPath></defs>
<g clip-path="url(#roundclip)">
<rect x="0" y="0.00" width="512" height="74.14" fill="#B22234"/>
<rect x="0" y="73.14" width="512" height="74.14" fill="#FFFFFF"/>
<rect x="0" y="146.29" width="512" height="74.14" fill="#B22234"/>
<rect x="0" y="219.43" width="512" height="74.14" fill="#FFFFFF"/>
<rect x="0" y="292.57" width="512" height="74.14" fill="#B22234"/>
<rect x="0" y="365.71" width="512" height="74.14" fill="#FFFFFF"/>
<rect x="0" y="438.86" width="512" height="74.14" fill="#B22234"/>
<rect x="0" y="0" width="281.60" height="292.57" fill="#3C3B6E"/>
<polygon points="45.06,9.98 52.70,30.43 74.52,31.39 57.43,44.98 63.26,66.02 45.06,53.97 26.85,66.02 32.68,44.98 15.60,31.39 37.41,30.43" fill="#FFFFFF"/>
<polygon points="140.80,9.98 148.45,30.43 170.26,31.39 153.17,44.98 159.01,66.02 140.80,53.97 122.59,66.02 128.43,44.98 111.34,31.39 133.15,30.43" fill="#FFFFFF"/>
<polygon points="236.54,9.98 244.19,30.43 266.00,31.39 248.92,44.98 254.75,66.02 236.54,53.97 218.34,66.02 224.17,44.98 207.08,31.39 228.90,30.43" fill="#FFFFFF"/>
<polygon points="45.06,115.31 52.70,135.76 74.52,136.71 57.43,150.31 63.26,171.35 45.06,159.30 26.85,171.35 32.68,150.31 15.60,136.71 37.41,135.76" fill="#FFFFFF"/>
<polygon points="140.80,115.31 148.45,135.76 170.26,136.71 153.17,150.31 159.01,171.35 140.80,159.30 122.59,171.35 128.43,150.31 111.34,136.71 133.15,135.76" fill="#FFFFFF"/>
<polygon points="236.54,115.31 244.19,135.76 266.00,136.71 248.92,150.31 254.75,171.35 236.54,159.30 218.34,171.35 224.17,150.31 207.08,136.71 228.90,135.76" fill="#FFFFFF"/>
<polygon points="45.06,220.64 52.70,241.09 74.52,242.04 57.43,255.63 63.26,276.67 45.06,264.62 26.85,276.67 32.68,255.63 15.60,242.04 37.41,241.09" fill="#FFFFFF"/>
<polygon points="140.80,220.64 148.45,241.09 170.26,242.04 153.17,255.63 159.01,276.67 140.80,264.62 122.59,276.67 128.43,255.63 111.34,242.04 133.15,241.09" fill="#FFFFFF"/>
<polygon points="236.54,220.64 244.19,241.09 266.00,242.04 248.92,255.63 254.75,276.67 236.54,264.62 218.34,276.67 224.17,255.63 207.08,242.04 228.90,241.09" fill="#FFFFFF"/>
</g>
</svg>